<svg xmlns="http://www.w3.org/2000/svg" xmlns:xlink="http://www.w3.org/1999/xlink" contentStyleType="text/css" data-diagram-type="WBS" height="1489.5833px" preserveAspectRatio="none" style="width:2727px;height:1489px;" version="1.1" viewBox="0 0 2727 1489" width="2727.0833px" zoomAndPan="magnify"><title>**ESTRUCTURA ORGANIZACIONAL DE CALIDAD IBM**</title><defs><linearGradient id="g11gc9hzex1ihb0" x1="50%" x2="50%" y1="0%" y2="100%"><stop offset="0%" stop-color="#FFFFFF"/><stop offset="100%" stop-color="#EEEEEE"/></linearGradient><linearGradient id="g11gc9hzex1ihb1" x1="50%" x2="50%" y1="0%" y2="100%"><stop offset="0%" stop-color="#F18E3E"/><stop offset="100%" stop-color="#EC7211"/></linearGradient></defs><g><rect fill="url(#g11gc9hzex1ihb0)" height="71.4722" rx="4.1667" ry="4.1667" style="stroke:#EEEEEE;stroke-width:1.0417;" width="607.5236" x="1006.8746" y="15.625"/><text fill="#EC7211" font-family="Verdana" font-size="20.8333" font-weight="bold" lengthAdjust="spacing" textLength="586.6903" x="1017.2913" y="46.9869">ESTRUCTURA ORGANIZACIONAL DE CALIDAD IBM</text><text fill="#EC7211" font-family="Verdana" font-size="20.8333" font-weight="bold" lengthAdjust="spacing" textLength="518.6056" x="1051.3336" y="72.3063">180 FTEs | 5 Niveles Jer&#225;rquicos | 15 Pa&#237;ses</text><line style="stroke:#BD5B0E;stroke-width:1.0417;" x1="124.2045" x2="124.2045" y1="160.6222" y2="181.4555"/><rect fill="url(#g11gc9hzex1ihb1)" height="46.4417" rx="10.4167" ry="10.4167" style="stroke:#BD5B0E;stroke-width:1.0417;" width="227.5757" x="10.4167" y="181.4555"/><text fill="#FFFFFF" font-family="Verdana" font-size="12.5" font-weight="bold" lengthAdjust="spacing" textLength="196.3257" x="26.0417" y="209.6476">NIVEL EJECUTIVO (C-Level)</text><line style="stroke:#BD5B0E;stroke-width:1.0417;" x1="124.2045" x2="134.6212" y1="261.5346" y2="261.5346"/><rect fill="url(#g11gc9hzex1ihb1)" height="46.4417" rx="10.4167" ry="10.4167" style="stroke:#BD5B0E;stroke-width:1.0417;" width="201.8921" x="134.6212" y="238.3138"/><text fill="#FFFFFF" font-family="Verdana" font-size="12.5" lengthAdjust="spacing" textLength="170.6421" x="150.2462" y="266.5059">Chief Quality Officer (CQO)</text><line style="stroke:#BD5B0E;stroke-width:1.0417;" x1="235.5672" x2="245.9839" y1="318.3929" y2="318.3929"/><rect fill="url(#g11gc9hzex1ihb1)" height="46.4417" rx="10.4167" ry="10.4167" style="stroke:#BD5B0E;stroke-width:1.0417;" width="177.7344" x="245.9839" y="295.1721"/><text fill="#FFFFFF" font-family="Verdana" font-size="12.5" lengthAdjust="spacing" textLength="146.4844" x="261.6089" y="323.3643">Strategy &amp; Governance</text><line style="stroke:#BD5B0E;stroke-width:1.0417;" x1="235.5672" x2="245.9839" y1="375.2513" y2="375.2513"/><rect fill="url(#g11gc9hzex1ihb1)" height="46.4417" rx="10.4167" ry="10.4167" style="stroke:#BD5B0E;stroke-width:1.0417;" width="169.574" x="245.9839" y="352.0304"/><text fill="#FFFFFF" font-family="Verdana" font-size="12.5" lengthAdjust="spacing" textLength="138.324" x="261.6089" y="380.2226">Budget: $3M annually</text><line style="stroke:#BD5B0E;stroke-width:1.0417;" x1="235.5672" x2="245.9839" y1="432.1096" y2="432.1096"/><rect fill="url(#g11gc9hzex1ihb1)" height="46.4417" rx="10.4167" ry="10.4167" style="stroke:#BD5B0E;stroke-width:1.0417;" width="193.866" x="245.9839" y="408.8888"/><text fill="#FFFFFF" font-family="Verdana" font-size="12.5" lengthAdjust="spacing" textLength="162.616" x="261.6089" y="437.0809">Scope: Global (15 pa&#237;ses)</text><line style="stroke:#BD5B0E;stroke-width:1.0417;" x1="235.5672" x2="235.5672" y1="284.7555" y2="432.1096"/><line style="stroke:#BD5B0E;stroke-width:1.0417;" x1="124.2045" x2="124.2045" y1="227.8971" y2="261.5346"/><line style="stroke:#BD5B0E;stroke-width:1.0417;" x1="581.3527" x2="581.3527" y1="160.6222" y2="181.4555"/><rect fill="url(#g11gc9hzex1ihb1)" height="46.4417" rx="10.4167" ry="10.4167" style="stroke:#BD5B0E;stroke-width:1.0417;" width="241.3391" x="460.6832" y="181.4555"/><text fill="#FFFFFF" font-family="Verdana" font-size="12.5" font-weight="bold" lengthAdjust="spacing" textLength="210.0891" x="476.3082" y="209.6476">NIVEL DIRECTIVO (Directors)</text><line style="stroke:#BD5B0E;stroke-width:1.0417;" x1="581.3527" x2="591.7694" y1="261.5346" y2="261.5346"/><rect fill="url(#g11gc9hzex1ihb1)" height="46.4417" rx="10.4167" ry="10.4167" style="stroke:#BD5B0E;stroke-width:1.0417;" width="191.1255" x="591.7694" y="238.3138"/><text fill="#FFFFFF" font-family="Verdana" font-size="12.5" lengthAdjust="spacing" textLength="159.8755" x="607.3944" y="266.5059">Director Test Engineering</text><line style="stroke:#BD5B0E;stroke-width:1.0417;" x1="687.3322" x2="697.7488" y1="318.3929" y2="318.3929"/><rect fill="url(#g11gc9hzex1ihb1)" height="46.4417" rx="10.4167" ry="10.4167" style="stroke:#BD5B0E;stroke-width:1.0417;" width="162.1277" x="697.7488" y="295.1721"/><text fill="#FFFFFF" font-family="Verdana" font-size="12.5" lengthAdjust="spacing" textLength="130.8777" x="713.3738" y="323.3643">Technical Leadership</text><line style="stroke:#BD5B0E;stroke-width:1.0417;" x1="687.3322" x2="697.7488" y1="375.2513" y2="375.2513"/><rect fill="url(#g11gc9hzex1ihb1)" height="46.4417" rx="10.4167" ry="10.4167" style="stroke:#BD5B0E;stroke-width:1.0417;" width="125.7263" x="697.7488" y="352.0304"/><text fill="#FFFFFF" font-family="Verdana" font-size="12.5" lengthAdjust="spacing" textLength="94.4763" x="713.3738" y="380.2226">Team: 65 FTEs</text><line style="stroke:#BD5B0E;stroke-width:1.0417;" x1="687.3322" x2="697.7488" y1="432.1096" y2="432.1096"/><rect fill="url(#g11gc9hzex1ihb1)" height="46.4417" rx="10.4167" ry="10.4167" style="stroke:#BD5B0E;stroke-width:1.0417;" width="124.6704" x="697.7488" y="408.8888"/><text fill="#FFFFFF" font-family="Verdana" font-size="12.5" lengthAdjust="spacing" textLength="93.4204" x="713.3738" y="437.0809">Budget: $1.2M</text><line style="stroke:#BD5B0E;stroke-width:1.0417;" x1="687.3322" x2="687.3322" y1="284.7555" y2="432.1096"/><line style="stroke:#BD5B0E;stroke-width:1.0417;" x1="581.3527" x2="591.7694" y1="488.9679" y2="488.9679"/><rect fill="url(#g11gc9hzex1ihb1)" height="46.4417" rx="10.4167" ry="10.4167" style="stroke:#BD5B0E;stroke-width:1.0417;" width="196.0815" x="591.7694" y="465.7471"/><text fill="#FFFFFF" font-family="Verdana" font-size="12.5" lengthAdjust="spacing" textLength="164.8315" x="607.3944" y="493.9392">Director Quality Processes</text><line style="stroke:#BD5B0E;stroke-width:1.0417;" x1="689.8102" x2="700.2268" y1="545.8262" y2="545.8262"/><rect fill="url(#g11gc9hzex1ihb1)" height="46.4417" rx="10.4167" ry="10.4167" style="stroke:#BD5B0E;stroke-width:1.0417;" width="148.5229" x="700.2268" y="522.6054"/><text fill="#FFFFFF" font-family="Verdana" font-size="12.5" lengthAdjust="spacing" textLength="117.2729" x="715.8518" y="550.7975">Process Excellence</text><line style="stroke:#BD5B0E;stroke-width:1.0417;" x1="689.8102" x2="700.2268" y1="602.6845" y2="602.6845"/><rect fill="url(#g11gc9hzex1ihb1)" height="46.4417" rx="10.4167" ry="10.4167" style="stroke:#BD5B0E;stroke-width:1.0417;" width="125.7263" x="700.2268" y="579.4637"/><text fill="#FFFFFF" font-family="Verdana" font-size="12.5" lengthAdjust="spacing" textLength="94.4763" x="715.8518" y="607.6558">Team: 45 FTEs</text><line style="stroke:#BD5B0E;stroke-width:1.0417;" x1="689.8102" x2="700.2268" y1="659.5428" y2="659.5428"/><rect fill="url(#g11gc9hzex1ihb1)" height="46.4417" rx="10.4167" ry="10.4167" style="stroke:#BD5B0E;stroke-width:1.0417;" width="126.1963" x="700.2268" y="636.322"/><text fill="#FFFFFF" font-family="Verdana" font-size="12.5" lengthAdjust="spacing" textLength="94.9463" x="715.8518" y="664.5142">Budget: $800K</text><line style="stroke:#BD5B0E;stroke-width:1.0417;" x1="689.8102" x2="689.8102" y1="512.1887" y2="659.5428"/><line style="stroke:#BD5B0E;stroke-width:1.0417;" x1="581.3527" x2="591.7694" y1="716.4012" y2="716.4012"/><rect fill="url(#g11gc9hzex1ihb1)" height="46.4417" rx="10.4167" ry="10.4167" style="stroke:#BD5B0E;stroke-width:1.0417;" width="198.8708" x="591.7694" y="693.1803"/><text fill="#FFFFFF" font-family="Verdana" font-size="12.5" lengthAdjust="spacing" textLength="167.6208" x="607.3944" y="721.3725">Director Quality Assurance</text><line style="stroke:#BD5B0E;stroke-width:1.0417;" x1="691.2048" x2="701.6215" y1="773.2595" y2="773.2595"/><rect fill="url(#g11gc9hzex1ihb1)" height="46.4417" rx="10.4167" ry="10.4167" style="stroke:#BD5B0E;stroke-width:1.0417;" width="127.6794" x="701.6215" y="750.0387"/><text fill="#FFFFFF" font-family="Verdana" font-size="12.5" lengthAdjust="spacing" textLength="96.4294" x="717.2465" y="778.2308">Product Quality</text><line style="stroke:#BD5B0E;stroke-width:1.0417;" x1="691.2048" x2="701.6215" y1="830.1178" y2="830.1178"/><rect fill="url(#g11gc9hzex1ihb1)" height="46.4417" rx="10.4167" ry="10.4167" style="stroke:#BD5B0E;stroke-width:1.0417;" width="125.7263" x="701.6215" y="806.897"/><text fill="#FFFFFF" font-family="Verdana" font-size="12.5" lengthAdjust="spacing" textLength="94.4763" x="717.2465" y="835.0891">Team: 70 FTEs</text><line style="stroke:#BD5B0E;stroke-width:1.0417;" x1="691.2048" x2="701.6215" y1="886.9761" y2="886.9761"/><rect fill="url(#g11gc9hzex1ihb1)" height="46.4417" rx="10.4167" ry="10.4167" style="stroke:#BD5B0E;stroke-width:1.0417;" width="112.1765" x="701.6215" y="863.7553"/><text fill="#FFFFFF" font-family="Verdana" font-size="12.5" lengthAdjust="spacing" textLength="80.9265" x="717.2465" y="891.9474">Budget: $1M</text><line style="stroke:#BD5B0E;stroke-width:1.0417;" x1="691.2048" x2="691.2048" y1="739.622" y2="886.9761"/><line style="stroke:#BD5B0E;stroke-width:1.0417;" x1="581.3527" x2="581.3527" y1="227.8971" y2="716.4012"/><line style="stroke:#BD5B0E;stroke-width:1.0417;" x1="998.3368" x2="998.3368" y1="160.6222" y2="181.4555"/><rect fill="url(#g11gc9hzex1ihb1)" height="46.4417" rx="10.4167" ry="10.4167" style="stroke:#BD5B0E;stroke-width:1.0417;" width="235.2539" x="880.7098" y="181.4555"/><text fill="#FFFFFF" font-family="Verdana" font-size="12.5" font-weight="bold" lengthAdjust="spacing" textLength="204.0039" x="896.3348" y="209.6476">NIVEL MANAGER (Managers)</text><line style="stroke:#BD5B0E;stroke-width:1.0417;" x1="998.3368" x2="1008.7535" y1="261.5346" y2="261.5346"/><rect fill="url(#g11gc9hzex1ihb1)" height="46.4417" rx="10.4167" ry="10.4167" style="stroke:#BD5B0E;stroke-width:1.0417;" width="221.9421" x="1008.7535" y="238.3138"/><text fill="#FFFFFF" font-family="Verdana" font-size="12.5" font-weight="bold" lengthAdjust="spacing" textLength="190.6921" x="1024.3785" y="266.5059">Test Engineering Managers</text><line style="stroke:#BD5B0E;stroke-width:1.0417;" x1="1119.7245" x2="1130.1412" y1="318.3929" y2="318.3929"/><rect fill="url(#g11gc9hzex1ihb1)" height="46.4417" rx="10.4167" ry="10.4167" style="stroke:#BD5B0E;stroke-width:1.0417;" width="193.1396" x="1130.1412" y="295.1721"/><text fill="#FFFFFF" font-family="Verdana" font-size="12.5" lengthAdjust="spacing" textLength="161.8896" x="1145.7662" y="323.3643">Test Automation Manager</text><line style="stroke:#BD5B0E;stroke-width:1.0417;" x1="1226.711" x2="1237.1277" y1="375.2513" y2="375.2513"/><rect fill="url(#g11gc9hzex1ihb1)" height="46.4417" rx="10.4167" ry="10.4167" style="stroke:#BD5B0E;stroke-width:1.0417;" width="161.9995" x="1237.1277" y="352.0304"/><text fill="#FFFFFF" font-family="Verdana" font-size="12.5" lengthAdjust="spacing" textLength="130.7495" x="1252.7527" y="380.2226">Automation Strategy</text><line style="stroke:#BD5B0E;stroke-width:1.0417;" x1="1226.711" x2="1237.1277" y1="432.1096" y2="432.1096"/><rect fill="url(#g11gc9hzex1ihb1)" height="46.4417" rx="10.4167" ry="10.4167" style="stroke:#BD5B0E;stroke-width:1.0417;" width="102.4048" x="1237.1277" y="408.8888"/><text fill="#FFFFFF" font-family="Verdana" font-size="12.5" lengthAdjust="spacing" textLength="71.1548" x="1252.7527" y="437.0809">ROI: 340%</text><line style="stroke:#BD5B0E;stroke-width:1.0417;" x1="1226.711" x2="1237.1277" y1="488.9679" y2="488.9679"/><rect fill="url(#g11gc9hzex1ihb1)" height="46.4417" rx="10.4167" ry="10.4167" style="stroke:#BD5B0E;stroke-width:1.0417;" width="129.9011" x="1237.1277" y="465.7471"/><text fill="#FFFFFF" font-family="Verdana" font-size="12.5" lengthAdjust="spacing" textLength="98.6511" x="1252.7527" y="493.9392">Coverage: 87%</text><line style="stroke:#BD5B0E;stroke-width:1.0417;" x1="1226.711" x2="1226.711" y1="341.6138" y2="488.9679"/><line style="stroke:#BD5B0E;stroke-width:1.0417;" x1="1119.7245" x2="1130.1412" y1="545.8262" y2="545.8262"/><rect fill="url(#g11gc9hzex1ihb1)" height="46.4417" rx="10.4167" ry="10.4167" style="stroke:#BD5B0E;stroke-width:1.0417;" width="199.823" x="1130.1412" y="522.6054"/><text fill="#FFFFFF" font-family="Verdana" font-size="12.5" lengthAdjust="spacing" textLength="168.573" x="1145.7662" y="550.7975">Performance Test Manager</text><line style="stroke:#BD5B0E;stroke-width:1.0417;" x1="1230.0527" x2="1240.4694" y1="602.6845" y2="602.6845"/><rect fill="url(#g11gc9hzex1ihb1)" height="46.4417" rx="10.4167" ry="10.4167" style="stroke:#BD5B0E;stroke-width:1.0417;" width="168.3472" x="1240.4694" y="579.4637"/><text fill="#FFFFFF" font-family="Verdana" font-size="12.5" lengthAdjust="spacing" textLength="137.0972" x="1256.0944" y="607.6558">Load &amp; Stress Testing</text><line style="stroke:#BD5B0E;stroke-width:1.0417;" x1="1230.0527" x2="1240.4694" y1="659.5428" y2="659.5428"/><rect fill="url(#g11gc9hzex1ihb1)" height="46.4417" rx="10.4167" ry="10.4167" style="stroke:#BD5B0E;stroke-width:1.0417;" width="107.2083" x="1240.4694" y="636.322"/><text fill="#FFFFFF" font-family="Verdana" font-size="12.5" lengthAdjust="spacing" textLength="75.9583" x="1256.0944" y="664.5142">SLA: 99.2%</text><line style="stroke:#BD5B0E;stroke-width:1.0417;" x1="1230.0527" x2="1240.4694" y1="716.4012" y2="716.4012"/><rect fill="url(#g11gc9hzex1ihb1)" height="46.4417" rx="10.4167" ry="10.4167" style="stroke:#BD5B0E;stroke-width:1.0417;" width="160.9619" x="1240.4694" y="693.1803"/><text fill="#FFFFFF" font-family="Verdana" font-size="12.5" lengthAdjust="spacing" textLength="129.7119" x="1256.0944" y="721.3725">Max Load: 5000 TPS</text><line style="stroke:#BD5B0E;stroke-width:1.0417;" x1="1230.0527" x2="1230.0527" y1="569.047" y2="716.4012"/><line style="stroke:#BD5B0E;stroke-width:1.0417;" x1="1119.7245" x2="1119.7245" y1="284.7555" y2="545.8262"/><line style="stroke:#BD5B0E;stroke-width:1.0417;" x1="998.3368" x2="1008.7535" y1="773.2595" y2="773.2595"/><rect fill="url(#g11gc9hzex1ihb1)" height="46.4417" rx="10.4167" ry="10.4167" style="stroke:#BD5B0E;stroke-width:1.0417;" width="227.6672" x="1008.7535" y="750.0387"/><text fill="#FFFFFF" font-family="Verdana" font-size="12.5" font-weight="bold" lengthAdjust="spacing" textLength="196.4172" x="1024.3785" y="778.2308">Process &amp; Quality Managers</text><line style="stroke:#BD5B0E;stroke-width:1.0417;" x1="1122.5871" x2="1133.0037" y1="830.1178" y2="830.1178"/><rect fill="url(#g11gc9hzex1ihb1)" height="46.4417" rx="10.4167" ry="10.4167" style="stroke:#BD5B0E;stroke-width:1.0417;" width="226.9226" x="1133.0037" y="806.897"/><text fill="#FFFFFF" font-family="Verdana" font-size="12.5" lengthAdjust="spacing" textLength="195.6726" x="1148.6287" y="835.0891">Process Improvement Manager</text><line style="stroke:#BD5B0E;stroke-width:1.0417;" x1="1246.465" x2="1256.8817" y1="886.9761" y2="886.9761"/><rect fill="url(#g11gc9hzex1ihb1)" height="46.4417" rx="10.4167" ry="10.4167" style="stroke:#BD5B0E;stroke-width:1.0417;" width="170.5872" x="1256.8817" y="863.7553"/><text fill="#FFFFFF" font-family="Verdana" font-size="12.5" lengthAdjust="spacing" textLength="139.3372" x="1272.5067" y="891.9474">CMMI Implementation</text><line style="stroke:#BD5B0E;stroke-width:1.0417;" x1="1246.465" x2="1256.8817" y1="943.8344" y2="943.8344"/><rect fill="url(#g11gc9hzex1ihb1)" height="46.4417" rx="10.4167" ry="10.4167" style="stroke:#BD5B0E;stroke-width:1.0417;" width="162.5854" x="1256.8817" y="920.6136"/><text fill="#FFFFFF" font-family="Verdana" font-size="12.5" lengthAdjust="spacing" textLength="131.3354" x="1272.5067" y="948.8057">Process Optimization</text><line style="stroke:#BD5B0E;stroke-width:1.0417;" x1="1246.465" x2="1246.465" y1="853.3386" y2="943.8344"/><line style="stroke:#BD5B0E;stroke-width:1.0417;" x1="1122.5871" x2="1133.0037" y1="1000.6927" y2="1000.6927"/><rect fill="url(#g11gc9hzex1ihb1)" height="46.4417" rx="10.4167" ry="10.4167" style="stroke:#BD5B0E;stroke-width:1.0417;" width="183.2031" x="1133.0037" y="977.4719"/><text fill="#FFFFFF" font-family="Verdana" font-size="12.5" lengthAdjust="spacing" textLength="151.9531" x="1148.6287" y="1005.6641">Quality Metrics Manager</text><line style="stroke:#BD5B0E;stroke-width:1.0417;" x1="1224.6053" x2="1235.022" y1="1057.5511" y2="1057.5511"/><rect fill="url(#g11gc9hzex1ihb1)" height="46.4417" rx="10.4167" ry="10.4167" style="stroke:#BD5B0E;stroke-width:1.0417;" width="110.6873" x="1235.022" y="1034.3302"/><text fill="#FFFFFF" font-family="Verdana" font-size="12.5" lengthAdjust="spacing" textLength="79.4373" x="1250.647" y="1062.5224">KPI Tracking</text><line style="stroke:#BD5B0E;stroke-width:1.0417;" x1="1224.6053" x2="1235.022" y1="1114.4094" y2="1114.4094"/><rect fill="url(#g11gc9hzex1ihb1)" height="46.4417" rx="10.4167" ry="10.4167" style="stroke:#BD5B0E;stroke-width:1.0417;" width="184.3445" x="1235.022" y="1091.1886"/><text fill="#FFFFFF" font-family="Verdana" font-size="12.5" lengthAdjust="spacing" textLength="153.0945" x="1250.647" y="1119.3807">Dashboard Management</text><line style="stroke:#BD5B0E;stroke-width:1.0417;" x1="1224.6053" x2="1224.6053" y1="1023.9136" y2="1114.4094"/><line style="stroke:#BD5B0E;stroke-width:1.0417;" x1="1122.5871" x2="1133.0037" y1="1171.2677" y2="1171.2677"/><rect fill="url(#g11gc9hzex1ihb1)" height="46.4417" rx="10.4167" ry="10.4167" style="stroke:#BD5B0E;stroke-width:1.0417;" width="186.1023" x="1133.0037" y="1148.0469"/><text fill="#FFFFFF" font-family="Verdana" font-size="12.5" lengthAdjust="spacing" textLength="154.8523" x="1148.6287" y="1176.239">Product Quality Manager</text><line style="stroke:#BD5B0E;stroke-width:1.0417;" x1="1226.0549" x2="1236.4716" y1="1228.126" y2="1228.126"/><rect fill="url(#g11gc9hzex1ihb1)" height="46.4417" rx="10.4167" ry="10.4167" style="stroke:#BD5B0E;stroke-width:1.0417;" width="116.1682" x="1236.4716" y="1204.9052"/><text fill="#FFFFFF" font-family="Verdana" font-size="12.5" lengthAdjust="spacing" textLength="84.9182" x="1252.0966" y="1233.0973">Quality Gates</text><line style="stroke:#BD5B0E;stroke-width:1.0417;" x1="1226.0549" x2="1236.4716" y1="1284.9843" y2="1284.9843"/><rect fill="url(#g11gc9hzex1ihb1)" height="46.4417" rx="10.4167" ry="10.4167" style="stroke:#BD5B0E;stroke-width:1.0417;" width="165.2588" x="1236.4716" y="1261.7635"/><text fill="#FFFFFF" font-family="Verdana" font-size="12.5" lengthAdjust="spacing" textLength="134.0088" x="1252.0966" y="1289.9556">Release Management</text><line style="stroke:#BD5B0E;stroke-width:1.0417;" x1="1226.0549" x2="1226.0549" y1="1194.4885" y2="1284.9843"/><line style="stroke:#BD5B0E;stroke-width:1.0417;" x1="1122.5871" x2="1133.0037" y1="1341.8427" y2="1341.8427"/><rect fill="url(#g11gc9hzex1ihb1)" height="46.4417" rx="10.4167" ry="10.4167" style="stroke:#BD5B0E;stroke-width:1.0417;" width="162.1704" x="1133.0037" y="1318.6218"/><text fill="#FFFFFF" font-family="Verdana" font-size="12.5" lengthAdjust="spacing" textLength="130.9204" x="1148.6287" y="1346.814">Compliance Manager</text><line style="stroke:#BD5B0E;stroke-width:1.0417;" x1="1214.0889" x2="1224.5056" y1="1398.701" y2="1398.701"/><rect fill="url(#g11gc9hzex1ihb1)" height="46.4417" rx="10.4167" ry="10.4167" style="stroke:#BD5B0E;stroke-width:1.0417;" width="154.2175" x="1224.5056" y="1375.4801"/><text fill="#FFFFFF" font-family="Verdana" font-size="12.5" lengthAdjust="spacing" textLength="122.9675" x="1240.1306" y="1403.6723">Audit &amp; Compliance</text><line style="stroke:#BD5B0E;stroke-width:1.0417;" x1="1214.0889" x2="1224.5056" y1="1455.5593" y2="1455.5593"/><rect fill="url(#g11gc9hzex1ihb1)" height="46.4417" rx="10.4167" ry="10.4167" style="stroke:#BD5B0E;stroke-width:1.0417;" width="142.8101" x="1224.5056" y="1432.3385"/><text fill="#FFFFFF" font-family="Verdana" font-size="12.5" lengthAdjust="spacing" textLength="111.5601" x="1240.1306" y="1460.5306">Risk Management</text><line style="stroke:#BD5B0E;stroke-width:1.0417;" x1="1214.0889" x2="1214.0889" y1="1365.0635" y2="1455.5593"/><line style="stroke:#BD5B0E;stroke-width:1.0417;" x1="1122.5871" x2="1122.5871" y1="796.4803" y2="1341.8427"/><line style="stroke:#BD5B0E;stroke-width:1.0417;" x1="998.3368" x2="998.3368" y1="227.8971" y2="773.2595"/><line style="stroke:#BD5B0E;stroke-width:1.0417;" x1="1585.4329" x2="1585.4329" y1="160.6222" y2="181.4555"/><rect fill="url(#g11gc9hzex1ihb1)" height="46.4417" rx="10.4167" ry="10.4167" style="stroke:#BD5B0E;stroke-width:1.0417;" width="274.2615" x="1448.3022" y="181.4555"/><text fill="#FFFFFF" font-family="Verdana" font-size="12.5" font-weight="bold" lengthAdjust="spacing" textLength="243.0115" x="1463.9272" y="209.6476">NIVEL TEAM LEAD (Team Leaders)</text><line style="stroke:#BD5B0E;stroke-width:1.0417;" x1="1585.4329" x2="1595.8496" y1="261.5346" y2="261.5346"/><rect fill="url(#g11gc9hzex1ihb1)" height="46.4417" rx="10.4167" ry="10.4167" style="stroke:#BD5B0E;stroke-width:1.0417;" width="142.5293" x="1595.8496" y="238.3138"/><text fill="#FFFFFF" font-family="Verdana" font-size="12.5" font-weight="bold" lengthAdjust="spacing" textLength="111.2793" x="1611.4746" y="266.5059">Technical Leads</text><line style="stroke:#BD5B0E;stroke-width:1.0417;" x1="1667.1143" x2="1677.5309" y1="318.3929" y2="318.3929"/><rect fill="url(#g11gc9hzex1ihb1)" height="46.4417" rx="10.4167" ry="10.4167" style="stroke:#BD5B0E;stroke-width:1.0417;" width="134.1248" x="1677.5309" y="295.1721"/><text fill="#FFFFFF" font-family="Verdana" font-size="12.5" lengthAdjust="spacing" textLength="102.8748" x="1693.1559" y="323.3643">UI/UX Test Lead</text><line style="stroke:#BD5B0E;stroke-width:1.0417;" x1="1667.1143" x2="1677.5309" y1="375.2513" y2="375.2513"/><rect fill="url(#g11gc9hzex1ihb1)" height="46.4417" rx="10.4167" ry="10.4167" style="stroke:#BD5B0E;stroke-width:1.0417;" width="117.6697" x="1677.5309" y="352.0304"/><text fill="#FFFFFF" font-family="Verdana" font-size="12.5" lengthAdjust="spacing" textLength="86.4197" x="1693.1559" y="380.2226">API Test Lead</text><line style="stroke:#BD5B0E;stroke-width:1.0417;" x1="1667.1143" x2="1677.5309" y1="432.1096" y2="432.1096"/><rect fill="url(#g11gc9hzex1ihb1)" height="46.4417" rx="10.4167" ry="10.4167" style="stroke:#BD5B0E;stroke-width:1.0417;" width="175.4944" x="1677.5309" y="408.8888"/><text fill="#FFFFFF" font-family="Verdana" font-size="12.5" lengthAdjust="spacing" textLength="144.2444" x="1693.1559" y="437.0809">Performance Test Lead</text><line style="stroke:#BD5B0E;stroke-width:1.0417;" x1="1667.1143" x2="1677.5309" y1="488.9679" y2="488.9679"/><rect fill="url(#g11gc9hzex1ihb1)" height="46.4417" rx="10.4167" ry="10.4167" style="stroke:#BD5B0E;stroke-width:1.0417;" width="147.8271" x="1677.5309" y="465.7471"/><text fill="#FFFFFF" font-family="Verdana" font-size="12.5" lengthAdjust="spacing" textLength="116.5771" x="1693.1559" y="493.9392">Security Test Lead</text><line style="stroke:#BD5B0E;stroke-width:1.0417;" x1="1667.1143" x2="1677.5309" y1="545.8262" y2="545.8262"/><rect fill="url(#g11gc9hzex1ihb1)" height="46.4417" rx="10.4167" ry="10.4167" style="stroke:#BD5B0E;stroke-width:1.0417;" width="160.6323" x="1677.5309" y="522.6054"/><text fill="#FFFFFF" font-family="Verdana" font-size="12.5" lengthAdjust="spacing" textLength="129.3823" x="1693.1559" y="550.7975">Functional Test Lead</text><line style="stroke:#BD5B0E;stroke-width:1.0417;" x1="1667.1143" x2="1667.1143" y1="284.7555" y2="545.8262"/><line style="stroke:#BD5B0E;stroke-width:1.0417;" x1="1585.4329" x2="1595.8496" y1="602.6845" y2="602.6845"/><rect fill="url(#g11gc9hzex1ihb1)" height="46.4417" rx="10.4167" ry="10.4167" style="stroke:#BD5B0E;stroke-width:1.0417;" width="130.7373" x="1595.8496" y="579.4637"/><text fill="#FFFFFF" font-family="Verdana" font-size="12.5" font-weight="bold" lengthAdjust="spacing" textLength="99.4873" x="1611.4746" y="607.6558">Process Leads</text><line style="stroke:#BD5B0E;stroke-width:1.0417;" x1="1661.2183" x2="1671.6349" y1="659.5428" y2="659.5428"/><rect fill="url(#g11gc9hzex1ihb1)" height="46.4417" rx="10.4167" ry="10.4167" style="stroke:#BD5B0E;stroke-width:1.0417;" width="152.24" x="1671.6349" y="636.322"/><text fill="#FFFFFF" font-family="Verdana" font-size="12.5" lengthAdjust="spacing" textLength="120.99" x="1687.2599" y="664.5142">CMMI Process Lead</text><line style="stroke:#BD5B0E;stroke-width:1.0417;" x1="1661.2183" x2="1671.6349" y1="716.4012" y2="716.4012"/><rect fill="url(#g11gc9hzex1ihb1)" height="46.4417" rx="10.4167" ry="10.4167" style="stroke:#BD5B0E;stroke-width:1.0417;" width="149.3835" x="1671.6349" y="693.1803"/><text fill="#FFFFFF" font-family="Verdana" font-size="12.5" lengthAdjust="spacing" textLength="118.1335" x="1687.2599" y="721.3725">TMMi Process Lead</text><line style="stroke:#BD5B0E;stroke-width:1.0417;" x1="1661.2183" x2="1671.6349" y1="773.2595" y2="773.2595"/><rect fill="url(#g11gc9hzex1ihb1)" height="46.4417" rx="10.4167" ry="10.4167" style="stroke:#BD5B0E;stroke-width:1.0417;" width="160.6628" x="1671.6349" y="750.0387"/><text fill="#FFFFFF" font-family="Verdana" font-size="12.5" lengthAdjust="spacing" textLength="129.4128" x="1687.2599" y="778.2308">Metrics Analyst Lead</text><line style="stroke:#BD5B0E;stroke-width:1.0417;" x1="1661.2183" x2="1661.2183" y1="625.9054" y2="773.2595"/><line style="stroke:#BD5B0E;stroke-width:1.0417;" x1="1585.4329" x2="1595.8496" y1="830.1178" y2="830.1178"/><rect fill="url(#g11gc9hzex1ihb1)" height="46.4417" rx="10.4167" ry="10.4167" style="stroke:#BD5B0E;stroke-width:1.0417;" width="157.3425" x="1595.8496" y="806.897"/><text fill="#FFFFFF" font-family="Verdana" font-size="12.5" font-weight="bold" lengthAdjust="spacing" textLength="126.0925" x="1611.4746" y="835.0891">Compliance Leads</text><line style="stroke:#BD5B0E;stroke-width:1.0417;" x1="1674.5209" x2="1684.9375" y1="886.9761" y2="886.9761"/><rect fill="url(#g11gc9hzex1ihb1)" height="46.4417" rx="10.4167" ry="10.4167" style="stroke:#BD5B0E;stroke-width:1.0417;" width="168.8232" x="1684.9375" y="863.7553"/><text fill="#FFFFFF" font-family="Verdana" font-size="12.5" lengthAdjust="spacing" textLength="137.5732" x="1700.5625" y="891.9474">Compliance Test Lead</text><line style="stroke:#BD5B0E;stroke-width:1.0417;" x1="1674.5209" x2="1674.5209" y1="853.3386" y2="886.9761"/><line style="stroke:#BD5B0E;stroke-width:1.0417;" x1="1585.4329" x2="1585.4329" y1="227.8971" y2="830.1178"/><line style="stroke:#BD5B0E;stroke-width:1.0417;" x1="2002.6703" x2="2002.6703" y1="160.6222" y2="181.4555"/><rect fill="url(#g11gc9hzex1ihb1)" height="46.4417" rx="10.4167" ry="10.4167" style="stroke:#BD5B0E;stroke-width:1.0417;" width="256.1523" x="1874.5941" y="181.4555"/><text fill="#FFFFFF" font-family="Verdana" font-size="12.5" font-weight="bold" lengthAdjust="spacing" textLength="224.9023" x="1890.2191" y="209.6476">NIVEL SPECIALIST (Specialists)</text><line style="stroke:#BD5B0E;stroke-width:1.0417;" x1="2002.6703" x2="2013.087" y1="261.5346" y2="261.5346"/><rect fill="url(#g11gc9hzex1ihb1)" height="46.4417" rx="10.4167" ry="10.4167" style="stroke:#BD5B0E;stroke-width:1.0417;" width="192.4072" x="2013.087" y="238.3138"/><text fill="#FFFFFF" font-family="Verdana" font-size="12.5" font-weight="bold" lengthAdjust="spacing" textLength="161.1572" x="2028.712" y="266.5059">Automation Specialists</text><line style="stroke:#BD5B0E;stroke-width:1.0417;" x1="2109.2906" x2="2119.7072" y1="318.3929" y2="318.3929"/><rect fill="url(#g11gc9hzex1ihb1)" height="46.4417" rx="10.4167" ry="10.4167" style="stroke:#BD5B0E;stroke-width:1.0417;" width="183.6548" x="2119.7072" y="295.1721"/><text fill="#FFFFFF" font-family="Verdana" font-size="12.5" lengthAdjust="spacing" textLength="152.4048" x="2135.3322" y="323.3643">Selenium Specialists (8)</text><line style="stroke:#BD5B0E;stroke-width:1.0417;" x1="2109.2906" x2="2119.7072" y1="375.2513" y2="375.2513"/><rect fill="url(#g11gc9hzex1ihb1)" height="46.4417" rx="10.4167" ry="10.4167" style="stroke:#BD5B0E;stroke-width:1.0417;" width="175.0977" x="2119.7072" y="352.0304"/><text fill="#FFFFFF" font-family="Verdana" font-size="12.5" lengthAdjust="spacing" textLength="143.8477" x="2135.3322" y="380.2226">Cypress Specialists (6)</text><line style="stroke:#BD5B0E;stroke-width:1.0417;" x1="2109.2906" x2="2119.7072" y1="432.1096" y2="432.1096"/><rect fill="url(#g11gc9hzex1ihb1)" height="46.4417" rx="10.4167" ry="10.4167" style="stroke:#BD5B0E;stroke-width:1.0417;" width="166.748" x="2119.7072" y="408.8888"/><text fill="#FFFFFF" font-family="Verdana" font-size="12.5" lengthAdjust="spacing" textLength="135.498" x="2135.3322" y="437.0809">JMeter Specialists (5)</text><line style="stroke:#BD5B0E;stroke-width:1.0417;" x1="2109.2906" x2="2109.2906" y1="284.7555" y2="432.1096"/><line style="stroke:#BD5B0E;stroke-width:1.0417;" x1="2002.6703" x2="2013.087" y1="488.9679" y2="488.9679"/><rect fill="url(#g11gc9hzex1ihb1)" height="46.4417" rx="10.4167" ry="10.4167" style="stroke:#BD5B0E;stroke-width:1.0417;" width="168.2495" x="2013.087" y="465.7471"/><text fill="#FFFFFF" font-family="Verdana" font-size="12.5" font-weight="bold" lengthAdjust="spacing" textLength="136.9995" x="2028.712" y="493.9392">Security Specialists</text><line style="stroke:#BD5B0E;stroke-width:1.0417;" x1="2097.2117" x2="2107.6284" y1="545.8262" y2="545.8262"/><rect fill="url(#g11gc9hzex1ihb1)" height="46.4417" rx="10.4167" ry="10.4167" style="stroke:#BD5B0E;stroke-width:1.0417;" width="172.2046" x="2107.6284" y="522.6054"/><text fill="#FFFFFF" font-family="Verdana" font-size="12.5" lengthAdjust="spacing" textLength="140.9546" x="2123.2534" y="550.7975">OWASP Specialists (4)</text><line style="stroke:#BD5B0E;stroke-width:1.0417;" x1="2097.2117" x2="2097.2117" y1="512.1887" y2="545.8262"/><line style="stroke:#BD5B0E;stroke-width:1.0417;" x1="2002.6703" x2="2013.087" y1="602.6845" y2="602.6845"/><rect fill="url(#g11gc9hzex1ihb1)" height="46.4417" rx="10.4167" ry="10.4167" style="stroke:#BD5B0E;stroke-width:1.0417;" width="168.9636" x="2013.087" y="579.4637"/><text fill="#FFFFFF" font-family="Verdana" font-size="12.5" font-weight="bold" lengthAdjust="spacing" textLength="137.7136" x="2028.712" y="607.6558">Analysis Specialists</text><line style="stroke:#BD5B0E;stroke-width:1.0417;" x1="2097.5688" x2="2107.9854" y1="659.5428" y2="659.5428"/><rect fill="url(#g11gc9hzex1ihb1)" height="46.4417" rx="10.4167" ry="10.4167" style="stroke:#BD5B0E;stroke-width:1.0417;" width="167.4683" x="2107.9854" y="636.322"/><text fill="#FFFFFF" font-family="Verdana" font-size="12.5" lengthAdjust="spacing" textLength="136.2183" x="2123.6104" y="664.5142">Process Analysts (12)</text><line style="stroke:#BD5B0E;stroke-width:1.0417;" x1="2097.5688" x2="2107.9854" y1="716.4012" y2="716.4012"/><rect fill="url(#g11gc9hzex1ihb1)" height="46.4417" rx="10.4167" ry="10.4167" style="stroke:#BD5B0E;stroke-width:1.0417;" width="141.6504" x="2107.9854" y="693.1803"/><text fill="#FFFFFF" font-family="Verdana" font-size="12.5" lengthAdjust="spacing" textLength="110.4004" x="2123.6104" y="721.3725">Data Analysts (8)</text><line style="stroke:#BD5B0E;stroke-width:1.0417;" x1="2097.5688" x2="2107.9854" y1="773.2595" y2="773.2595"/><rect fill="url(#g11gc9hzex1ihb1)" height="46.4417" rx="10.4167" ry="10.4167" style="stroke:#BD5B0E;stroke-width:1.0417;" width="146.6125" x="2107.9854" y="750.0387"/><text fill="#FFFFFF" font-family="Verdana" font-size="12.5" lengthAdjust="spacing" textLength="115.3625" x="2123.6104" y="778.2308">Test Analysts (35)</text><line style="stroke:#BD5B0E;stroke-width:1.0417;" x1="2097.5688" x2="2097.5688" y1="625.9054" y2="773.2595"/><line style="stroke:#BD5B0E;stroke-width:1.0417;" x1="2002.6703" x2="2013.087" y1="830.1178" y2="830.1178"/><rect fill="url(#g11gc9hzex1ihb1)" height="46.4417" rx="10.4167" ry="10.4167" style="stroke:#BD5B0E;stroke-width:1.0417;" width="155.3711" x="2013.087" y="806.897"/><text fill="#FFFFFF" font-family="Verdana" font-size="12.5" font-weight="bold" lengthAdjust="spacing" textLength="124.1211" x="2028.712" y="835.0891">Quality Engineers</text><line style="stroke:#BD5B0E;stroke-width:1.0417;" x1="2090.7725" x2="2101.1892" y1="886.9761" y2="886.9761"/><rect fill="url(#g11gc9hzex1ihb1)" height="46.4417" rx="10.4167" ry="10.4167" style="stroke:#BD5B0E;stroke-width:1.0417;" width="147.3511" x="2101.1892" y="863.7553"/><text fill="#FFFFFF" font-family="Verdana" font-size="12.5" lengthAdjust="spacing" textLength="116.1011" x="2116.8142" y="891.9474">QA Engineers (45)</text><line style="stroke:#BD5B0E;stroke-width:1.0417;" x1="2090.7725" x2="2101.1892" y1="943.8344" y2="943.8344"/><rect fill="url(#g11gc9hzex1ihb1)" height="46.4417" rx="10.4167" ry="10.4167" style="stroke:#BD5B0E;stroke-width:1.0417;" width="184.5764" x="2101.1892" y="920.6136"/><text fill="#FFFFFF" font-family="Verdana" font-size="12.5" lengthAdjust="spacing" textLength="153.3264" x="2116.8142" y="948.8057">Compliance Analysts (6)</text><line style="stroke:#BD5B0E;stroke-width:1.0417;" x1="2090.7725" x2="2090.7725" y1="853.3386" y2="943.8344"/><line style="stroke:#BD5B0E;stroke-width:1.0417;" x1="2002.6703" x2="2002.6703" y1="227.8971" y2="830.1178"/><line style="stroke:#BD5B0E;stroke-width:1.0417;" x1="2419.0196" x2="2419.0196" y1="160.6222" y2="181.4555"/><rect fill="url(#g11gc9hzex1ihb1)" height="46.4417" rx="10.4167" ry="10.4167" style="stroke:#BD5B0E;stroke-width:1.0417;" width="189.6484" x="2324.1954" y="181.4555"/><text fill="#FFFFFF" font-family="Verdana" font-size="12.5" font-weight="bold" lengthAdjust="spacing" textLength="158.3984" x="2339.8204" y="209.6476">EQUIPOS DE SOPORTE</text><line style="stroke:#BD5B0E;stroke-width:1.0417;" x1="2419.0196" x2="2429.4362" y1="261.5346" y2="261.5346"/><rect fill="url(#g11gc9hzex1ihb1)" height="46.4417" rx="10.4167" ry="10.4167" style="stroke:#BD5B0E;stroke-width:1.0417;" width="157.5134" x="2429.4362" y="238.3138"/><text fill="#FFFFFF" font-family="Verdana" font-size="12.5" font-weight="bold" lengthAdjust="spacing" textLength="126.2634" x="2445.0612" y="266.5059">Technical Support</text><line style="stroke:#BD5B0E;stroke-width:1.0417;" x1="2508.193" x2="2518.6096" y1="318.3929" y2="318.3929"/><rect fill="url(#g11gc9hzex1ihb1)" height="46.4417" rx="10.4167" ry="10.4167" style="stroke:#BD5B0E;stroke-width:1.0417;" width="157.8308" x="2518.6096" y="295.1721"/><text fill="#FFFFFF" font-family="Verdana" font-size="12.5" lengthAdjust="spacing" textLength="126.5808" x="2534.2346" y="323.3643">DevOps Support (8)</text><line style="stroke:#BD5B0E;stroke-width:1.0417;" x1="2508.193" x2="2518.6096" y1="375.2513" y2="375.2513"/><rect fill="url(#g11gc9hzex1ihb1)" height="46.4417" rx="10.4167" ry="10.4167" style="stroke:#BD5B0E;stroke-width:1.0417;" width="177.5452" x="2518.6096" y="352.0304"/><text fill="#FFFFFF" font-family="Verdana" font-size="12.5" lengthAdjust="spacing" textLength="146.2952" x="2534.2346" y="380.2226">Tool Administrators (6)</text><line style="stroke:#BD5B0E;stroke-width:1.0417;" x1="2508.193" x2="2508.193" y1="284.7555" y2="375.2513"/><line style="stroke:#BD5B0E;stroke-width:1.0417;" x1="2419.0196" x2="2429.4362" y1="432.1096" y2="432.1096"/><rect fill="url(#g11gc9hzex1ihb1)" height="46.4417" rx="10.4167" ry="10.4167" style="stroke:#BD5B0E;stroke-width:1.0417;" width="201.5747" x="2429.4362" y="408.8888"/><text fill="#FFFFFF" font-family="Verdana" font-size="12.5" font-weight="bold" lengthAdjust="spacing" textLength="170.3247" x="2445.0612" y="437.0809">Training &amp; Development</text><line style="stroke:#BD5B0E;stroke-width:1.0417;" x1="2530.2236" x2="2540.6403" y1="488.9679" y2="488.9679"/><rect fill="url(#g11gc9hzex1ihb1)" height="46.4417" rx="10.4167" ry="10.4167" style="stroke:#BD5B0E;stroke-width:1.0417;" width="145.166" x="2540.6403" y="465.7471"/><text fill="#FFFFFF" font-family="Verdana" font-size="12.5" lengthAdjust="spacing" textLength="113.916" x="2556.2653" y="493.9392">Training Team (4)</text><line style="stroke:#BD5B0E;stroke-width:1.0417;" x1="2530.2236" x2="2530.2236" y1="455.3304" y2="488.9679"/><line style="stroke:#BD5B0E;stroke-width:1.0417;" x1="2419.0196" x2="2429.4362" y1="545.8262" y2="545.8262"/><rect fill="url(#g11gc9hzex1ihb1)" height="46.4417" rx="10.4167" ry="10.4167" style="stroke:#BD5B0E;stroke-width:1.0417;" width="166.4246" x="2429.4362" y="522.6054"/><text fill="#FFFFFF" font-family="Verdana" font-size="12.5" font-weight="bold" lengthAdjust="spacing" textLength="135.1746" x="2445.0612" y="550.7975">External Resources</text><line style="stroke:#BD5B0E;stroke-width:1.0417;" x1="2512.6485" x2="2523.0652" y1="602.6845" y2="602.6845"/><rect fill="url(#g11gc9hzex1ihb1)" height="46.4417" rx="10.4167" ry="10.4167" style="stroke:#BD5B0E;stroke-width:1.0417;" width="192.9993" x="2523.0652" y="579.4637"/><text fill="#FFFFFF" font-family="Verdana" font-size="12.5" lengthAdjust="spacing" textLength="161.7493" x="2538.6902" y="607.6558">External Consultants (12)</text><line style="stroke:#BD5B0E;stroke-width:1.0417;" x1="2512.6485" x2="2523.0652" y1="659.5428" y2="659.5428"/><rect fill="url(#g11gc9hzex1ihb1)" height="46.4417" rx="10.4167" ry="10.4167" style="stroke:#BD5B0E;stroke-width:1.0417;" width="185.083" x="2523.0652" y="636.322"/><text fill="#FFFFFF" font-family="Verdana" font-size="12.5" lengthAdjust="spacing" textLength="153.833" x="2538.6902" y="664.5142">Vendor Management (3)</text><line style="stroke:#BD5B0E;stroke-width:1.0417;" x1="2512.6485" x2="2512.6485" y1="569.047" y2="659.5428"/><line style="stroke:#BD5B0E;stroke-width:1.0417;" x1="2419.0196" x2="2419.0196" y1="227.8971" y2="545.8262"/><line style="stroke:#BD5B0E;stroke-width:1.0417;" x1="124.2045" x2="2419.0196" y1="160.6222" y2="160.6222"/><rect fill="url(#g11gc9hzex1ihb1)" height="46.4417" rx="10.4167" ry="10.4167" style="stroke:#BD5B0E;stroke-width:1.0417;" width="245.0684" x="1149.0779" y="93.3472"/><text fill="#FFFFFF" font-family="Verdana" font-size="12.5" font-weight="bold" lengthAdjust="spacing" textLength="213.8184" x="1164.7029" y="121.5393">ORGANIZACI&#211;N CALIDAD IBM</text><line style="stroke:#BD5B0E;stroke-width:1.0417;" x1="1271.612" x2="1271.612" y1="139.7888" y2="160.6222"/><!--SRC=[xLhhSk8u5luDJw6PxkbAg4sFWK1eQcgh7N3IP23GGBANsgejOGlYYP4yjfnqfgUVOfvW7s2VebziZspBbes0wLgwVyMf_B2ET2xVkUX8-6t8SS0V5s7rEtv7rWJXn_241PYkIBNANUuHLAjPi_dqfZU_cPfeFBqqhmV_D7k3yRKvH7qBzSpXe6_sqU1yLAlzYzOx1hgOMo7w7RNGjVj0F1AYAn9y_a_mQ-JQJ13gBJJ1d_yRah1QhG7_dEddFwwB3AirCU5wS6iDaNLbzMxcWzinEkgT30cmFeudr53lpYLBz3x2dikVq7YvT6qImAptusD1hw4P3p0dgoVq2bso1n9GJ6sIaCuZPqLu5xriZX2c57XuJ-aYc_caYouzji0UEWAj_KJhuwggLdymjNg9Mdqt83PdGIWLamDeJaAEBBfoAI61IrU9X3cnxwXh0_SXmGu9mZlNbnIyxg9sAyQof6ZzTMDKv2ujdmJC9g70DLwHlYBhWqqyZsGc9ynFjSmxXl6pdhaPXb6GumRCdSZcagnoFZEqQeyAi8tCQ_FIcgAZ4QPuHNBCQhKoM4XEIMRK4ZJDYBCrvYwZaXuJQof1-ZsbJCU3BcgU6Z-axpqH2x2oYpfdFwHcaM39WhMmCn5Jv3ras84W0hu2M351EXFYPMXsqPithnkI_GX_Y1TqKSim33IVp583fMDUPU2MBPGp1ci_02NNX9OrwOr60q7sOc9iRagHQyS-TzVkRpafbqPuuDfXYUFFam6Q1zY-pqtgu_1kmN3Wf5E5AAtxIwpaw2MW7qhmeHJWa6nmwZ4mmeq1B_lHSJbWb4-GdDpmNcMZXjNSCaTeQ47zE1B1A1DB3IurvpB0RmO_tlmzyRWOJmPDWKXnQ2C-SjACs54Wh2wDNqJK5Zu0aGMA4WW5LMBFgfGqw4SZLpCiVMa2_wSYTmNPee1yF5T81N4siNe3ACEpEJgQ-SHsmPiXLq1KKoodI_upy3HrexLAGqUTj1RtdlmuUGh4Tagy0dEWT1TehUDKQWQmHkRuR-PiKbntAjSbqBYXRfq4D8KFbjKRgIvzpB4oBlLFYaystCpKaq4lArScuxsPZu5QhUCDD-Jisd9piTxV32RZcTXYP-F9U3gtD24yYtoV1LmAwfE7iH_AKKLbnZnaEckNWkbG4LcGGIxO1HW8K6PV2GR4Oxx8ggpMIcgSJZcerWSkzb4FyZfaKG0WoXKPfSTe67aSqmAijuGwiAta-GiOWj5lOLZq8TMtMKjI3Q4K-JW0kUTGbbO1YwZJOnwi1Yje22IH_lciA2JdXECPVuA-POcza5GHFDzXsBgWjr4M8SzTtQbB7RB4eEi5e_mQmzpa-VwM10ue-hr-vipzJSwiDzGfleisdxfXA7F2E-omHm6i-YHAvxDYasqMK4YA_EaeCoO0bckxFg0ymOwJCZnLHPsp3mf9FeKf6ZeyBMM66GJiCG5VULwSMgr-kwVQ1SudZ3_v17sCqU-LVRUCdvJ60YZFoVYBSqlynGIplEX5e_dct6YaH7LL_QnzbX866wkitccxSPeIrLNcMQDZ9BAiZLKNzOxLbCI2XltMURhgUcELONHCoqY9wYh3QFNUjAkV59IIrlfZjIB3g2AMLJ9S6qQral2O9X9A4G0XaDBdTwvzJqK9orVNWLZIBaNzv0M9dqHm1j9PerwN3DF1TDudDGizie8iJVrQKLcaOL2fw1nQgUX385D6iDkLuGKbmaTtxM4QerU2-QovM6pYqgXMvWBklP34ipPn0UcAU0nx-OCeyo2-0C75nKNPVWbiPKk4dUJGuooS-vqwX7Db9gfWoJ9BYRLafE_YDQFE1lyCs6o6Dj4aTTEJ1SZzlCOSrcobU6rwxLC9Tc1mKE5xZCQYu0c9kKxDQgKaPG-FaFmQYNENO1CNq08lhTvRWh2oApyAmI8NM4eHbFdzOISNGLTLaaaDuvfKxnCFFsd6X-wI3A7PAR32YqNRRfI9XHpDI6M_TUflwYR0TGc3lbR1cA9H9Hv_5vy05AhCdOJVbioHqfoddP0f4dREwqFDqCoHcee2AATe3DmWgy0fHCL82VYKB64_XX3SgLu-ImTlHjL0dD6smboQiHNmMTOub1EyI8cRhdf3Kw7YyyZ7BNdrXIbLu6uppoFn6IuyQ0ag2Q4yW3xzMzOuiFJWMzaUaGkn50VVLYYSD9AjIzCWQdgVjF_RnvKohdGXUKvgGglKd1GRmp8AfMs8kqlO_RJQvnLQuTgqJirMaMjQ3KhnjlOP9GVUqWiYN0gP2yeJdV9P3rwGX5uuzMO3qdllrWhz0BXrbrEXlz5rxplXfipHQrlQAJLxspwyFHOvEjRREKltxe72mHmlnDNQLqufVOdMQMHxSEJ-Qkh4VBRi9kLbkrJM9Qx9UU0k8hwn2HK8oHvKYdQs-8NO1swGlw7wKKZiWmUHfi_JcgIh7kBt1qnN7jcRD5knsGFObsZZWm9RwesgIxdcR4_XofuJpv9vGDRMj_nqzwTRdJso0d7dzGMYv7QcwVVsY0evvkJGIV9dZigwr92ks9yTS8wBo5Ti_iHlB1yFsJSiNM-dH_VkOVfD5xWT6WM5_nhxX-R-KoXkW_zQVLo4VHUlGCfVqDgb3eXAt-Fxh80ndbvixKvlX4gwYQ5tK3y2EBpU5xqcIE98ktbxA4RLmYt6HZXOkHJLaoj4UIFRZjzcsMsnyLhGFy5_sgfitCNzFu2fakkj-5MzW6n8sJRsqzFMfZLopX8WZGlOzYch_FYy1NprYd2psCZHvCP_0HKpPNodyjJB3ehdqYztld8ur-eG4X7KoRMLrhGIW-q2DrXlN1z_smlZEC9qjyL2kqzL-kX0PgdPHGb_PC7zWQDLy2hbsCl9T30of__uz_cbBizU6sKdPZcPU2nuo2BXW3abUClhn6tozPKYIn8bXYuLMI-7WyjtSzNQugNP9WQD58EqshGAATzAFRZ2b7FLWHo7X_QUkF7RvhRjfJ0fV3mBVbKFnVnqXzH1bjUESfAg34g_JAWC3lp3XwwY2CtMi8738PUMJLLRhwHLIJk1f4gu77kkdUHp8LBw0tCqlkuBY5L3izy2ahgo9fvBoPSLuuBQSCmDYRwNsNB-JaBkfn_JZVhvkxFdxywUlpjx_kxi-Rkpv-_EdhyxU_xkx5jzTpRnOC7DQ8YWDeSYmc2_CngjrusZUKJG5QR8E4FrHhVPwZRRg3UU8q4-hXvTJeOeKGKvmavnaGJhZwjN-06ZQKH5LzL5ukreFZf6CqiEWdiUt83Hk9fStOwIIUWTupEVyNXo-_Ja7AhHB3cPt8wg_UJpCrXgCz4LTz7D_EAaKnrYkehYFGKgNm-wBXuyTK7D_m40]--></g></svg>